# Blender v2.79 (sub 0) OBJ File: 'w.blend'
# www.blender.org
mtllib ww.mtl
o Cube
v 0.262334 -1.131450 -0.012637
v 0.950946 4.012792 -0.012637
v 1.606640 1.440671 -0.012636
v 0.606640 1.440671 0.987363
v -0.393360 1.440671 -0.012637
v 0.606640 1.440671 -1.012637
v 2.576942 5.675381 -0.272149
v 1.550664 5.248195 0.718097
v 0.524387 4.821009 0.126181
v 1.550664 5.248195 -0.864065
v 1.550664 6.039276 -0.072984
v 1.550664 4.457114 -0.072984
v 1.078064 3.445423 -1.188901
v 2.262998 2.363909 -2.133453
v 3.447933 1.282395 -1.911347
v 2.262998 2.363909 -0.966794
v 2.262998 1.780579 -1.550124
v 2.262998 2.947238 -1.550124
v 0.835206 3.135232 1.306517
v 2.020140 2.053718 0.361964
v 3.205075 0.972204 0.584071
v 2.020140 2.053718 1.528623
v 2.020140 1.470388 0.945294
v 2.020140 2.637047 0.945294
v 1.098410 -0.488419 -0.012637
v 0.348411 -0.488419 -0.762637
v 1.356640 1.440671 -0.762637
v 0.348410 -0.488419 0.737363
v 1.356640 1.440671 0.737363
v -0.401590 -0.488419 -0.012637
v -0.143360 1.440671 0.737363
v -0.143360 1.440671 -0.762637
v 1.614869 3.369762 -0.012636
v 0.864870 3.369762 -0.762637
v 0.864869 3.369762 0.737363
v 0.114869 3.369762 -0.012637
v 2.320372 6.161895 -0.222358
v 2.320372 5.568585 -0.815669
v 2.320372 4.975274 -0.222358
v 2.320372 5.568585 0.370953
v 1.550664 5.841506 0.520326
v 1.550664 4.654884 0.520326
v 0.780956 4.927805 0.669700
v 0.780956 5.521116 0.076390
v 0.780956 4.334495 0.076390
v 0.780956 4.927805 -0.516921
v 1.550664 5.841506 -0.666295
v 1.550664 4.654884 -0.666295
v 1.374298 2.737547 -1.279207
v 1.374298 3.175044 -0.841709
v 1.374298 3.612541 -1.279207
v 1.374298 3.175044 -1.716704
v 2.262998 1.926412 -1.987621
v 2.262998 2.801406 -1.987621
v 3.151699 1.552773 -2.258538
v 3.151699 1.115276 -1.821041
v 3.151699 1.990270 -1.821041
v 3.151699 1.552773 -1.383544
v 2.262998 1.926412 -1.112627
v 2.262998 2.801406 -1.112627
v 1.131439 2.427356 1.216211
v 1.131439 2.864853 1.653708
v 1.131439 3.302350 1.216211
v 1.131439 2.864853 0.778714
v 2.020140 1.616221 0.507797
v 2.020140 2.491215 0.507797
v 2.908841 1.242582 0.236879
v 2.908841 0.805085 0.674377
v 2.908841 1.680079 0.674377
v 2.908841 1.242582 1.111874
v 2.020140 1.616221 1.382791
v 2.020140 2.491215 1.382791
v 0.970915 0.011715 -0.568192
v 0.970914 0.011715 0.542919
v -0.140197 0.011715 0.542919
v -0.140197 0.011715 -0.568192
v 1.353477 2.869627 -0.568192
v 1.353477 2.869627 0.542919
v 0.242365 2.869627 0.542919
v 0.242366 2.869627 -0.568192
v 2.120819 5.925010 -0.623121
v 2.120819 5.046031 -0.623121
v 2.120819 5.925010 0.255858
v 2.120819 5.046031 0.255858
v 0.980510 5.450359 -0.401826
v 0.980510 4.571381 -0.401826
v 0.980510 5.450359 0.477152
v 0.980510 4.571381 0.477152
v 1.604702 2.640678 -1.025373
v 1.604702 3.288822 -1.025373
v 1.604702 2.640678 -1.673516
v 1.604702 3.288822 -1.673516
v 2.921295 1.438996 -1.426731
v 2.921295 2.087139 -1.426731
v 2.921295 1.438996 -2.074875
v 2.921295 2.087139 -2.074875
v 1.361843 2.330487 0.821901
v 1.361843 2.330487 1.470045
v 1.361843 2.978631 1.470045
v 1.361843 2.978631 0.821901
v 2.678437 1.128805 0.420542
v 2.678437 1.776949 0.420542
v 2.678437 1.128805 1.068686
v 2.678437 1.776949 1.068686
vt 0.500033 0.142319
vt 0.422388 0.227700
vt 0.430252 0.144740
vt 0.355249 0.175461
vt 0.415786 0.076057
vt 0.290713 0.434223
vt 0.226824 0.556977
vt 0.202975 0.467689
vt 0.110943 0.470382
vt 0.207757 0.371818
vt 0.369863 0.339211
vt 0.519733 0.208409
vt 0.423709 0.373985
vt 0.324469 0.544779
vt 0.269937 0.373159
vt 0.319546 0.300986
vt 0.368758 0.229984
vt 0.269799 0.262781
vt 0.092795 0.375937
vt 0.219715 0.222933
vt 0.343418 0.075148
vt 0.168390 0.179779
vt 0.052115 0.314584
vt 0.000168 0.269778
vt 0.116443 0.134973
vt 0.232718 0.000168
vt 0.284665 0.044975
vt 0.484045 0.401840
vt 0.568686 0.246703
vt 0.632267 0.271099
vt 0.547626 0.426236
vt 0.462984 0.581374
vt 0.399404 0.556977
vt 0.181788 0.866929
vt 0.143315 0.919239
vt 0.136498 0.871827
vt 0.132268 0.831587
vt 0.158470 0.823357
vt 0.212236 0.832580
vt 0.265453 0.890857
vt 0.205338 0.909266
vt 0.268945 0.786244
vt 0.219304 0.777335
vt 0.183463 0.810622
vt 0.176263 0.773356
vt 0.201421 0.720877
vt 0.264379 0.679216
vt 0.157019 0.682888
vt 0.168603 0.739963
vt 0.129656 0.730067
vt 0.062467 0.723466
vt 0.099357 0.654135
vt 0.201042 0.635743
vt 0.084909 0.838721
vt 0.000168 0.846664
vt 0.030169 0.786612
vt 0.103214 0.796627
vt 0.073652 0.892204
vt 0.329393 0.797080
vt 0.329393 0.701573
vt 0.395245 0.713372
vt 0.395245 0.808878
vt 0.395245 0.904384
vt 0.329393 0.892586
vt 0.135616 0.777313
vt 0.770956 0.185386
vt 0.800898 0.231828
vt 0.752147 0.240782
vt 0.794137 0.300250
vt 0.745986 0.288671
vt 0.704182 0.226222
vt 0.749478 0.087132
vt 0.701686 0.187127
vt 0.673554 0.174096
vt 0.708527 0.087132
vt 0.784452 0.000168
vt 0.825402 0.000168
vt 0.786349 0.094093
vt 0.909936 0.054425
vt 0.868913 0.003251
vt 0.917545 0.012500
vt 0.948061 0.071793
vt 0.891453 0.105743
vt 0.867155 0.060879
vt 0.836415 0.144114
vt 0.851220 0.175846
vt 0.941610 0.110850
vt 0.868922 0.204453
vt 0.801628 0.190412
vt 0.815060 0.114975
vt 0.867097 0.099744
vt 0.898972 0.224220
vt 0.999832 0.149445
vt 0.935196 0.239566
vt 0.870559 0.329686
vt 0.834336 0.314340
vt 0.963608 0.134100
vt 0.472202 0.809444
vt 0.534560 0.767959
vt 0.514673 0.818781
vt 0.562193 0.808585
vt 0.509587 0.861737
vt 0.463210 0.855370
vt 0.619813 0.759323
vt 0.565270 0.771978
vt 0.604739 0.730284
vt 0.667600 0.695962
vt 0.717282 0.704711
vt 0.634423 0.789301
vt 0.685621 0.643469
vt 0.640693 0.688850
vt 0.641591 0.649715
vt 0.688759 0.596409
vt 0.722897 0.659946
vt 0.597116 0.581710
vt 0.555730 0.679812
vt 0.517752 0.672614
vt 0.468244 0.774999
vt 0.438388 0.763518
vt 0.474946 0.672614
vt 0.554310 0.581710
vt 0.584052 0.701408
vt 0.641430 0.585385
vt 0.653718 0.820992
vt 0.729835 0.741331
vt 0.751471 0.773880
vt 0.675354 0.853541
vt 0.599237 0.933202
vt 0.577601 0.900654
vt 0.549779 0.874650
vt 0.494961 0.062332
vt 0.117825 0.581374
vt 0.138543 0.581710
vt 0.693859 0.278349
vt 0.632603 0.174096
vt 0.968738 0.024832
vt 0.737596 0.611109
vt 0.395582 0.763518
vn 0.5205 -0.6768 -0.5205
vn 0.5205 -0.6768 0.5205
vn -0.5711 -0.5897 0.5711
vn -0.5711 -0.5897 -0.5711
vn 0.5711 0.5897 -0.5711
vn -0.5205 0.6768 -0.5205
vn -0.5205 0.6768 0.5205
vn 0.5711 0.5897 0.5711
vn 0.9089 -0.2866 -0.3030
vn 0.9062 -0.0039 -0.4229
vn 0.9477 0.0451 0.3159
vn 0.8814 -0.2322 0.4113
vn 0.3092 -0.2097 0.9276
vn 0.4221 0.0607 0.9045
vn -0.3092 0.2097 0.9276
vn -0.4221 -0.0607 0.9045
vn -0.9477 -0.0451 0.3159
vn -0.8814 0.2322 0.4113
vn -0.9089 0.2866 -0.3030
vn -0.9062 0.0039 -0.4229
vn 0.3136 0.1287 -0.9408
vn 0.4166 -0.1715 -0.8928
vn -0.3136 -0.1287 -0.9408
vn -0.4166 0.1715 -0.8928
vn -0.6659 -0.6071 0.4336
vn -0.8191 0.3334 0.4667
vn -0.9002 0.3080 -0.3080
vn -0.7833 -0.3613 -0.5058
vn -0.2840 -0.3032 -0.9096
vn -0.5491 0.2643 -0.7929
vn -0.0718 0.3154 -0.9462
vn 0.2774 -0.3038 -0.9114
vn 0.8434 -0.4372 -0.3123
vn 0.6865 0.4226 -0.5917
vn 0.7454 0.5424 0.3875
vn 0.9002 -0.3080 0.3080
vn 0.5048 -0.3651 0.7823
vn 0.2840 0.3032 0.9096
vn -0.2269 0.4119 0.8825
vn 0.0718 -0.3154 0.9462
vn -0.0077 -0.9487 -0.3162
vn 0.4669 -0.8014 -0.3740
vn 0.6235 -0.7417 0.2472
vn 0.2208 -0.8838 0.4124
vn -0.1142 0.9425 -0.3142
vn -0.5691 0.7451 -0.3477
vn -0.5593 0.7864 0.2621
vn -0.0622 0.9044 0.4221
vn -0.8276 -0.3970 0.3970
vn -0.0796 0.5794 0.8112
vn -0.5235 0.6025 -0.6025
vn -0.8854 -0.3286 -0.3286
vn -0.6299 -0.3285 -0.7038
vn -0.1544 0.3124 -0.9373
vn 0.2502 0.4094 -0.8774
vn -0.3889 -0.2913 -0.8740
vn -0.0614 -0.8122 -0.5801
vn 0.8276 0.3970 -0.3970
vn 0.8854 0.3286 0.3286
vn 0.5235 -0.6025 0.6025
vn 0.1544 -0.3124 0.9373
vn 0.6227 0.2474 0.7423
vn 0.3889 0.2913 0.8740
vn -0.2124 -0.3090 0.9270
vn -0.7630 -0.6133 -0.2044
vn -0.6282 -0.7051 -0.3290
vn -0.4830 -0.8307 0.2769
vn -0.6463 -0.6915 0.3227
vn 0.7026 0.6751 -0.2250
vn 0.4816 0.7942 -0.3706
vn 0.5971 0.7610 0.2537
vn 0.7414 0.6081 0.2838
vn 0.6049 -0.5178 -0.6049
vn 0.6049 -0.5178 0.6049
vn -0.6529 -0.3840 0.6529
vn -0.6529 -0.3840 -0.6529
vn 0.6529 0.3840 -0.6529
vn -0.6049 0.5178 -0.6049
vn -0.6049 0.5178 0.6049
vn 0.6529 0.3840 0.6529
vn 0.8814 -0.2322 -0.4113
vn 0.9477 0.0451 -0.3159
vn 0.9062 -0.0039 0.4229
vn 0.9089 -0.2866 0.3030
vn 0.4166 -0.1715 0.8928
vn 0.3136 0.1287 0.9408
vn -0.4166 0.1715 0.8928
vn -0.3136 -0.1287 0.9408
vn -0.9062 0.0039 0.4229
vn -0.9089 0.2866 0.3030
vn -0.8814 0.2322 -0.4113
vn -0.9477 -0.0451 -0.3159
vn 0.4221 0.0607 -0.9045
vn 0.3092 -0.2097 -0.9276
vn -0.4221 -0.0607 -0.9045
vn -0.3092 0.2097 -0.9276
vn -0.6865 -0.4226 0.5917
vn -0.8434 0.4372 0.3123
vn -0.8221 0.4026 -0.4026
vn -0.7454 -0.5424 -0.3875
vn -0.3210 -0.4490 -0.8339
vn -0.5048 0.3651 -0.7823
vn -0.0028 0.4741 -0.8805
vn 0.2269 -0.4119 -0.8825
vn 0.8191 -0.3334 -0.4667
vn 0.6659 0.6071 -0.4336
vn 0.7833 0.3613 0.5058
vn 0.8221 -0.4026 0.4026
vn 0.5491 -0.2643 0.7929
vn 0.3210 0.4490 0.8339
vn -0.2774 0.3038 0.9114
vn 0.0028 -0.4741 0.8805
vn 0.0622 -0.9044 -0.4221
vn 0.5593 -0.7864 -0.2621
vn 0.5691 -0.7451 0.3477
vn 0.1142 -0.9425 0.3142
vn -0.2208 0.8838 -0.4124
vn -0.6235 0.7417 -0.2472
vn -0.4669 0.8014 0.3740
vn 0.0077 0.9487 0.3162
vn -0.7326 -0.4813 0.4813
vn 0.0614 0.8122 0.5801
vn -0.2117 0.6911 -0.6911
vn -0.8333 -0.3909 -0.3909
vn -0.6227 -0.2474 -0.7423
vn -0.0689 0.4730 -0.8784
vn 0.2124 0.3090 -0.9270
vn -0.4237 -0.4294 -0.7975
vn 0.0796 -0.5794 -0.8112
vn 0.7326 0.4813 -0.4813
vn 0.8333 0.3909 0.3909
vn 0.2117 -0.6911 0.6911
vn 0.0689 -0.4730 0.8784
vn 0.6299 0.3285 0.7038
vn 0.4237 0.4294 0.7975
vn -0.2502 -0.4094 0.8774
vn -0.7414 -0.6081 -0.2838
vn -0.5971 -0.7610 -0.2537
vn -0.4816 -0.7942 0.3706
vn -0.7026 -0.6751 0.2250
vn 0.6463 0.6915 -0.3227
vn 0.4830 0.8307 -0.2769
vn 0.6282 0.7051 0.3290
vn 0.7630 0.6133 0.2044
usemtl Material
s off
f 26/1/1 25/2/1 1/3/1
f 25/2/2 28/4/2 1/3/2
f 28/4/3 30/5/3 1/3/3
f 30/5/4 26/1/4 1/3/4
f 33/6/5 34/7/5 2/8/5
f 34/7/6 36/9/6 2/8/6
f 36/9/7 35/10/7 2/8/7
f 35/10/8 33/6/8 2/8/8
f 3/11/9 73/12/9 27/13/9
f 3/11/10 77/14/10 33/6/10
f 3/11/11 78/15/11 29/16/11
f 3/11/12 74/17/12 25/2/12
f 4/18/13 74/17/13 29/16/13
f 4/18/14 78/15/14 35/10/14
f 4/18/15 79/19/15 31/20/15
f 4/18/16 75/21/16 28/4/16
f 5/22/17 75/21/17 31/20/17
f 5/22/18 79/19/18 36/23/18
f 5/22/19 80/24/19 32/25/19
f 5/22/20 76/26/20 30/27/20
f 6/28/21 77/14/21 27/13/21
f 6/28/22 73/12/22 26/29/22
f 6/28/23 76/30/23 32/31/23
f 6/28/24 80/32/24 34/33/24
f 7/34/25 81/35/25 38/36/25
f 7/34/26 82/37/26 39/38/26
f 39/38/27 40/39/27 7/34/27
f 7/34/28 83/40/28 37/41/28
f 41/42/29 40/39/29 8/43/29
f 8/43/30 84/44/30 42/45/30
f 42/45/31 43/46/31 8/43/31
f 8/43/32 87/47/32 41/42/32
f 9/48/33 87/47/33 43/46/33
f 9/48/34 88/49/34 45/50/34
f 9/48/35 86/51/35 46/52/35
f 46/52/36 44/53/36 9/48/36
f 10/54/37 85/55/37 46/56/37
f 46/56/38 48/57/38 10/54/38
f 10/54/39 82/37/39 38/36/39
f 38/36/40 47/58/40 10/54/40
f 11/59/41 83/40/41 41/42/41
f 11/59/42 87/47/42 44/60/42
f 11/59/43 85/61/43 47/62/43
f 11/59/44 81/63/44 37/64/44
f 12/65/45 88/49/45 42/45/45
f 12/65/46 84/44/46 39/38/46
f 12/65/47 82/37/47 48/57/47
f 12/65/48 86/51/48 45/50/48
f 49/66/49 50/67/49 13/68/49
f 13/68/50 90/69/50 51/70/50
f 51/70/51 52/71/51 13/68/51
f 52/71/52 49/66/52 13/68/52
f 14/72/53 91/73/53 52/74/53
f 52/74/54 54/75/54 14/72/54
f 14/72/55 96/76/55 55/77/55
f 55/77/56 53/78/56 14/72/56
f 15/79/57 95/80/57 55/81/57
f 55/81/58 57/82/58 15/79/58
f 57/82/59 58/83/59 15/79/59
f 58/83/60 56/84/60 15/79/60
f 59/85/61 58/83/61 16/86/61
f 16/86/62 94/87/62 60/88/62
f 60/88/63 50/67/63 16/86/63
f 16/86/64 89/89/64 59/85/64
f 17/90/65 91/73/65 53/78/65
f 17/90/66 95/80/66 56/84/66
f 17/90/67 93/91/67 59/85/67
f 17/90/68 89/89/68 49/66/68
f 18/92/69 96/93/69 54/94/69
f 18/92/70 92/95/70 51/96/70
f 18/92/71 90/69/71 60/88/71
f 18/92/72 94/87/72 57/97/72
f 62/98/58 61/99/58 19/100/58
f 61/99/59 64/101/59 19/100/59
f 64/101/60 63/102/60 19/100/60
f 19/100/57 99/103/57 62/98/57
f 20/104/62 97/105/62 65/106/62
f 65/106/63 67/107/63 20/104/63
f 20/104/64 102/108/64 66/109/64
f 66/109/61 64/101/61 20/104/61
f 21/110/50 101/111/50 68/112/50
f 68/112/51 70/113/51 21/110/51
f 70/113/52 69/114/52 21/110/52
f 69/114/49 67/107/49 21/110/49
f 70/115/54 71/116/54 22/117/54
f 22/117/55 98/118/55 62/119/55
f 62/119/56 72/120/56 22/117/56
f 22/117/53 104/121/53 70/115/53
f 23/122/72 97/105/72 61/99/72
f 23/122/69 98/118/69 71/116/69
f 23/122/70 103/123/70 68/112/70
f 23/122/71 101/111/71 65/106/71
f 24/124/68 102/108/68 69/125/68
f 24/124/65 104/126/65 72/127/65
f 24/124/66 99/128/66 63/129/66
f 24/124/67 100/130/67 66/109/67
f 26/1/73 73/12/73 25/2/73
f 25/2/74 74/17/74 28/4/74
f 28/4/75 75/21/75 30/5/75
f 30/5/76 76/131/76 26/1/76
f 33/6/77 77/14/77 34/7/77
f 34/7/78 80/132/78 36/9/78
f 36/9/79 79/19/79 35/10/79
f 35/10/80 78/15/80 33/6/80
f 3/11/81 25/2/81 73/12/81
f 3/11/82 27/13/82 77/14/82
f 3/11/83 33/6/83 78/15/83
f 3/11/84 29/16/84 74/17/84
f 4/18/85 28/4/85 74/17/85
f 4/18/86 29/16/86 78/15/86
f 4/18/87 35/10/87 79/19/87
f 4/18/88 31/20/88 75/21/88
f 5/22/89 30/27/89 75/21/89
f 5/22/90 31/20/90 79/19/90
f 5/22/91 36/23/91 80/24/91
f 5/22/92 32/25/92 76/26/92
f 6/28/93 34/33/93 77/14/93
f 6/28/94 27/13/94 73/12/94
f 6/28/95 26/29/95 76/30/95
f 6/28/96 32/31/96 80/32/96
f 7/34/97 37/41/97 81/35/97
f 7/34/98 38/36/98 82/37/98
f 39/38/99 84/44/99 40/39/99
f 7/34/100 40/39/100 83/40/100
f 41/42/101 83/40/101 40/39/101
f 8/43/102 40/39/102 84/44/102
f 42/45/103 88/49/103 43/46/103
f 8/43/104 43/46/104 87/47/104
f 9/48/105 44/53/105 87/47/105
f 9/48/106 43/46/106 88/49/106
f 9/48/107 45/50/107 86/51/107
f 46/52/108 85/133/108 44/53/108
f 10/54/109 47/58/109 85/55/109
f 46/56/110 86/51/110 48/57/110
f 10/54/111 48/57/111 82/37/111
f 38/36/112 81/35/112 47/58/112
f 11/59/113 37/64/113 83/40/113
f 11/59/114 41/42/114 87/47/114
f 11/59/115 44/60/115 85/61/115
f 11/59/116 47/62/116 81/63/116
f 12/65/117 45/50/117 88/49/117
f 12/65/118 42/45/118 84/44/118
f 12/65/119 39/38/119 82/37/119
f 12/65/120 48/57/120 86/51/120
f 49/66/121 89/89/121 50/67/121
f 13/68/122 50/67/122 90/69/122
f 51/70/123 92/134/123 52/71/123
f 52/71/124 91/73/124 49/66/124
f 14/72/125 53/78/125 91/73/125
f 52/74/126 92/135/126 54/75/126
f 14/72/127 54/75/127 96/76/127
f 55/77/128 95/80/128 53/78/128
f 15/79/129 56/84/129 95/80/129
f 55/81/130 96/136/130 57/82/130
f 57/82/131 94/87/131 58/83/131
f 58/83/132 93/91/132 56/84/132
f 59/85/133 93/91/133 58/83/133
f 16/86/134 58/83/134 94/87/134
f 60/88/135 90/69/135 50/67/135
f 16/86/136 50/67/136 89/89/136
f 17/90/137 49/66/137 91/73/137
f 17/90/138 53/78/138 95/80/138
f 17/90/139 56/84/139 93/91/139
f 17/90/140 59/85/140 89/89/140
f 18/92/141 57/97/141 96/93/141
f 18/92/142 54/94/142 92/95/142
f 18/92/143 51/96/143 90/69/143
f 18/92/144 60/88/144 94/87/144
f 62/98/130 98/118/130 61/99/130
f 61/99/131 97/105/131 64/101/131
f 64/101/132 100/130/132 63/102/132
f 19/100/129 63/102/129 99/103/129
f 20/104/134 64/101/134 97/105/134
f 65/106/135 101/111/135 67/107/135
f 20/104/136 67/107/136 102/108/136
f 66/109/133 100/130/133 64/101/133
f 21/110/122 67/107/122 101/111/122
f 68/112/123 103/123/123 70/113/123
f 70/113/124 104/137/124 69/114/124
f 69/114/121 102/108/121 67/107/121
f 70/115/126 103/123/126 71/116/126
f 22/117/127 71/116/127 98/118/127
f 62/119/128 99/138/128 72/120/128
f 22/117/125 72/120/125 104/121/125
f 23/122/144 65/106/144 97/105/144
f 23/122/141 61/99/141 98/118/141
f 23/122/142 71/116/142 103/123/142
f 23/122/143 68/112/143 101/111/143
f 24/124/140 66/109/140 102/108/140
f 24/124/137 69/125/137 104/126/137
f 24/124/138 72/127/138 99/128/138
f 24/124/139 63/129/139 100/130/139
