# Blender v2.79 (sub 0) OBJ File: 'untitled.blend'
# www.blender.org
mtllib insan.mtl
o Cube
v 0.134266 -1.230197 -0.159686
v 0.039836 1.435718 0.621078
v 0.995491 0.102760 0.230696
v -0.094430 0.849035 1.780763
v -0.821389 0.102760 0.230696
v 0.268532 -0.643515 -1.319371
v 0.255351 2.192897 2.354485
v 0.119098 2.025450 2.895950
v -0.339475 2.192897 2.354485
v -0.203222 2.360344 1.813020
v -0.042062 2.490310 2.354485
v -0.042062 1.895484 2.354485
v 1.199037 0.209365 1.303191
v 0.957485 0.209365 1.544743
v 0.715932 0.209365 1.303191
v 0.957485 0.209365 1.061639
v 1.020526 1.065006 0.872097
v 0.894443 -0.646276 1.734285
v -1.134333 0.354272 1.601358
v -0.985212 0.354272 1.452237
v -0.836091 0.354272 1.601358
v -0.985212 0.354272 1.750479
v -1.225387 -0.165517 1.925144
v -0.745038 0.874061 1.277572
v 0.803792 -0.896958 -0.062090
v 0.234965 -1.198625 -1.029450
v 0.858712 -0.456946 -0.931854
v 0.009959 -0.595291 0.905269
v 0.678050 0.662466 1.393247
v -0.558868 -0.896958 -0.062090
v -0.776170 0.662466 1.393246
v -0.412389 -0.456946 -0.931855
v 0.732970 1.102478 0.523483
v 0.211358 0.284734 -0.834259
v -0.108078 1.920223 1.881224
v -0.629690 1.102478 0.523482
v 0.180998 2.415957 2.354485
v 0.130780 2.318482 1.948387
v 0.180998 1.969837 2.354485
v 0.231216 2.067312 2.760584
v 0.078808 2.219720 2.760584
v 0.078808 1.914904 2.760584
v -0.073600 2.067312 2.760584
v -0.265121 2.415957 2.354485
v -0.265121 1.969837 2.354485
v -0.456643 2.318482 1.948386
v -0.162932 2.612194 1.948386
v -0.162932 2.024770 1.948386
v 1.185930 0.851095 0.979870
v 1.138649 0.209365 1.122027
v 1.091367 -0.432366 1.626512
v 1.138649 0.209365 1.484355
v 1.004766 0.851095 1.161034
v 0.910203 -0.432366 1.807675
v 0.776320 0.209365 1.484355
v 0.823602 0.851095 0.979870
v 0.729039 -0.432366 1.626512
v 0.776321 0.209365 1.122027
v 1.004766 0.851095 0.798706
v 0.910203 -0.432366 1.445348
v -1.277184 -0.035569 1.844198
v -1.097053 0.354272 1.713199
v -0.916922 0.744114 1.358519
v -1.097053 0.354272 1.489517
v -1.165343 -0.035569 1.732357
v -0.805081 0.744114 1.246678
v -0.873372 0.354272 1.489517
v -1.053502 -0.035569 1.844198
v -0.693241 0.744114 1.358519
v -0.873372 0.354272 1.713199
v -1.165343 -0.035569 1.956038
v -0.805081 0.744114 1.470360
v 0.687954 -0.937685 -0.760580
v 0.547987 -0.337859 0.788214
v -0.502085 -0.337859 0.788214
v -0.280730 -0.937685 -0.760580
v 0.656478 0.314011 -0.500325
v 0.474541 1.372573 1.395475
v -0.575530 1.372573 1.395475
v -0.312207 0.314011 -0.500325
v 0.065035 2.482553 2.053671
v 0.065035 2.089293 2.053671
v 0.181300 2.233700 2.655299
v 0.181300 1.966043 2.655299
v -0.328225 2.482553 2.053671
v -0.328225 2.089293 2.053671
v -0.086357 2.233700 2.655299
v -0.086357 1.966043 2.655299
v 1.126703 0.684721 0.929499
v 1.056657 -0.265991 1.408492
v 1.126703 0.684721 1.197890
v 1.056657 -0.265991 1.676883
v 0.858312 0.684721 0.929499
v 0.788266 -0.265991 1.408492
v 0.858312 0.684721 1.197890
v 0.788266 -0.265991 1.676883
v -1.201488 0.065501 1.864084
v -0.934627 0.643044 1.504322
v -1.201488 0.065501 1.698395
v -0.934627 0.643044 1.338632
v -1.035798 0.065501 1.864084
v -0.768937 0.643044 1.504322
v -1.035798 0.065501 1.698395
v -0.768937 0.643044 1.338632
vt 0.687945 0.676770
vt 0.825140 0.779209
vt 0.691645 0.779209
vt 0.554077 0.666446
vt 0.684245 0.574332
vt 0.818485 0.594981
vt 0.821813 0.687095
vt 0.672010 0.275254
vt 0.590939 0.000343
vt 0.682243 0.012974
vt 0.773548 0.025606
vt 0.773548 0.289301
vt 0.773548 0.552997
vt 0.661776 0.537534
vt 0.550004 0.522071
vt 0.570471 0.261207
vt 0.110765 0.075362
vt 0.257161 0.085207
vt 0.128752 0.231157
vt 0.293134 0.170072
vt 0.146738 0.386953
vt 0.000343 0.377107
vt 0.000343 0.150381
vt 0.886945 0.005646
vt 0.999657 0.227069
vt 0.886945 0.232372
vt 0.999657 0.453796
vt 0.886945 0.459099
vt 0.774233 0.464402
vt 0.774233 0.237675
vt 0.774233 0.010948
vt 0.396470 0.245110
vt 0.549318 0.252749
vt 0.421569 0.440059
vt 0.293820 0.363674
vt 0.293819 0.099978
vt 0.371371 0.050160
vt 0.499120 0.126546
vt 0.092517 0.604519
vt 0.184691 0.696693
vt 0.092517 0.696693
vt 0.184691 0.788867
vt 0.092517 0.788867
vt 0.000343 0.788867
vt 0.000343 0.696694
vt 0.637813 0.779895
vt 0.683672 0.822905
vt 0.621198 0.809052
vt 0.659163 0.865915
vt 0.604584 0.838210
vt 0.550004 0.810504
vt 0.558725 0.795199
vt 0.567446 0.779895
vt 0.847058 0.465093
vt 0.864666 0.482714
vt 0.847052 0.482708
vt 0.847046 0.500323
vt 0.829437 0.482702
vt 0.365278 0.751343
vt 0.295303 0.753012
vt 0.294561 0.735413
vt 0.293819 0.717814
vt 0.363865 0.717814
vt 0.433910 0.717814
vt 0.435995 0.767273
vt 0.438079 0.816732
vt 0.366691 0.784872
vt 0.758369 0.829398
vt 0.708866 0.878901
vt 0.708866 0.829398
vt 0.708866 0.779895
vt 0.758369 0.779895
vt 0.807873 0.829398
vt 0.807873 0.878901
vt 0.758369 0.878901
vt 0.372724 0.658247
vt 0.293819 0.659750
vt 0.301509 0.643902
vt 0.309200 0.628055
vt 0.387375 0.628055
vt 0.465550 0.628055
vt 0.443938 0.672592
vt 0.422326 0.717128
vt 0.358073 0.688439
vt 0.218913 0.668124
vt 0.220582 0.729272
vt 0.202979 0.729917
vt 0.185376 0.730562
vt 0.185376 0.669353
vt 0.185376 0.608144
vt 0.234846 0.606332
vt 0.252449 0.666896
vt 0.120923 0.813907
vt 0.241503 0.838262
vt 0.133160 0.838262
vt 0.024817 0.838262
vt 0.012580 0.813907
vt 0.000343 0.789553
vt 0.108686 0.789553
vt 0.217029 0.789553
vt 0.229266 0.813907
vt 0.493432 0.738187
vt 0.466235 0.848320
vt 0.466235 0.739977
vt 0.466235 0.631634
vt 0.493432 0.629844
vt 0.520630 0.628055
vt 0.520630 0.736398
vt 0.520629 0.844741
vt 0.493432 0.846530
vt 0.905259 0.674263
vt 0.880905 0.770369
vt 0.880905 0.662026
vt 0.880905 0.553683
vt 0.905259 0.565920
vt 0.929614 0.578157
vt 0.929614 0.686500
vt 0.929614 0.794843
vt 0.905259 0.782606
vt 0.853022 0.663815
vt 0.825825 0.770369
vt 0.825825 0.662026
vt 0.825825 0.553683
vt 0.853022 0.555472
vt 0.880220 0.557262
vt 0.880220 0.665605
vt 0.880220 0.773948
vt 0.853022 0.772158
vt 0.212632 0.731248
vt 0.239888 0.758503
vt 0.212632 0.758503
vt 0.212632 0.785759
vt 0.185376 0.758503
vt 0.774233 0.492343
vt 0.801489 0.465087
vt 0.801489 0.492343
vt 0.828745 0.492343
vt 0.801489 0.519599
vt 0.082849 0.853594
vt 0.000343 0.838947
vt 0.074567 0.838947
vt 0.148791 0.838947
vt 0.157073 0.853594
vt 0.165355 0.868241
vt 0.091131 0.868241
vt 0.016907 0.868241
vt 0.008625 0.853594
vt 0.374187 0.833083
vt 0.293819 0.817418
vt 0.368043 0.817418
vt 0.442267 0.817418
vt 0.448411 0.833083
vt 0.454554 0.848747
vt 0.380330 0.848747
vt 0.306106 0.848747
vt 0.299963 0.833083
vt 0.840472 0.857139
vt 0.855119 0.791198
vt 0.855119 0.865422
vt 0.855119 0.939646
vt 0.840472 0.931363
vt 0.825825 0.923081
vt 0.825825 0.848857
vt 0.825825 0.774633
vt 0.840472 0.782916
vt 0.268652 0.811615
vt 0.284316 0.743535
vt 0.284316 0.817759
vt 0.284316 0.891983
vt 0.268652 0.885839
vt 0.252987 0.879695
vt 0.252987 0.805472
vt 0.252987 0.731248
vt 0.268652 0.737391
vt 0.863083 0.517841
vt 0.846257 0.534667
vt 0.846257 0.517841
vt 0.829431 0.517841
vt 0.846257 0.501015
vt 0.199693 0.855774
vt 0.182867 0.872600
vt 0.182867 0.855774
vt 0.166041 0.855774
vt 0.182867 0.838947
vt 0.558150 0.779209
vt 0.550004 0.553683
vt 0.221187 0.000343
vt 0.000343 0.603834
vt 0.999657 0.000343
vt 0.293820 0.627369
vt 0.448923 0.000343
vt 0.184691 0.604519
vt 0.000343 0.604520
vt 0.708181 0.779895
vt 0.864673 0.465099
vt 0.864660 0.500329
vt 0.829431 0.500317
vt 0.829443 0.465087
vt 0.807873 0.779895
vt 0.284316 0.604519
vt 0.239888 0.731248
vt 0.239888 0.785759
vt 0.185376 0.785759
vt 0.185376 0.731248
vt 0.774233 0.465087
vt 0.828745 0.465087
vt 0.828745 0.519599
vt 0.774233 0.519599
vt 0.863083 0.534667
vt 0.829431 0.534667
vt 0.829431 0.501015
vt 0.863083 0.501015
vt 0.199693 0.872600
vt 0.166041 0.872600
vt 0.166041 0.838947
vt 0.199693 0.838947
vn 0.4481 -0.8937 -0.0222
vn 0.3217 -0.7963 0.5123
vn -0.3334 -0.8264 0.4538
vn -0.4858 -0.8696 -0.0878
vn 0.3640 0.7509 -0.5510
vn -0.2663 0.7220 -0.6386
vn -0.5293 0.7692 -0.3579
vn 0.4099 0.8985 -0.1568
vn 0.9832 -0.1800 -0.0290
vn 0.8899 0.3269 -0.3182
vn 0.9648 0.2051 0.1647
vn 0.8452 -0.2930 0.4469
vn 0.2985 -0.4789 0.8256
vn 0.6010 -0.0670 0.7964
vn -0.5185 0.1439 0.8429
vn -0.4215 -0.4921 0.7616
vn -0.9001 -0.3778 0.2169
vn -0.9769 0.2051 -0.0608
vn -0.8106 0.3627 -0.4598
vn -0.9520 -0.1768 -0.2498
vn 0.3887 0.4454 -0.8065
vn 0.6257 -0.3905 -0.6752
vn -0.5334 -0.4097 -0.7400
vn -0.3618 0.4142 -0.8352
vn -0.9315 -0.3105 0.1897
vn -0.8515 0.2838 0.4409
vn -0.9201 0.3862 0.0648
vn -0.9319 -0.3106 -0.1873
vn -0.5510 -0.5510 -0.6268
vn -0.6638 0.6638 -0.3445
vn 0.5554 0.5554 -0.6189
vn 0.4471 -0.4471 -0.7747
vn 0.7471 -0.3136 -0.5861
vn 0.8278 0.2759 -0.4885
vn 0.8885 0.4430 -0.1194
vn 0.9161 -0.3054 -0.2598
vn 0.4229 -0.7002 0.5752
vn 0.5972 0.3607 0.7165
vn -0.3209 0.3209 0.8911
vn -0.5435 -0.3283 0.7726
vn -0.3463 -0.8250 -0.4466
vn 0.2514 -0.7543 -0.6064
vn 0.4141 -0.8305 -0.3725
vn -0.3150 -0.9450 -0.0878
vn 0.3822 0.9106 -0.1573
vn -0.3162 0.9486 0.0123
vn -0.4117 0.8258 0.3854
vn 0.3096 0.9288 0.2036
vn -0.9436 0.1037 0.3145
vn -0.8512 0.3430 0.3972
vn -0.9481 0.0355 -0.3160
vn -0.8828 -0.2256 -0.4120
vn -0.2736 -0.5015 -0.8208
vn -0.4004 -0.3220 -0.8579
vn 0.2960 -0.3522 -0.8879
vn 0.3669 -0.4972 -0.7863
vn 0.8942 -0.3339 -0.2981
vn 0.8895 -0.1910 -0.4151
vn 0.9276 0.2096 0.3092
vn 0.9045 0.0609 0.4221
vn 0.3003 0.3131 0.9010
vn 0.3766 0.4548 0.8070
vn -0.2680 0.5308 0.8040
vn -0.3923 0.3733 0.8407
vn -0.5248 -0.6702 -0.5248
vn 0.4982 -0.7096 -0.4982
vn 0.6783 -0.2827 0.6783
vn -0.6946 -0.1871 0.6946
vn 0.6946 0.1871 -0.6946
vn -0.6783 0.2827 -0.6783
vn -0.4982 0.7096 0.4982
vn 0.5248 0.6702 0.5248
vn -0.8457 0.4531 0.2819
vn -0.7184 0.6095 0.3353
vn -0.8902 0.3457 -0.2967
vn -0.9041 0.0685 -0.4219
vn -0.2745 -0.4964 -0.8235
vn -0.4070 -0.2718 -0.8721
vn 0.2700 -0.5208 -0.8099
vn 0.3228 -0.6461 -0.6916
vn 0.7545 -0.6063 -0.2515
vn 0.7786 -0.5116 -0.3633
vn 0.9425 -0.1136 0.3142
vn 0.8808 -0.2352 0.4110
vn 0.3014 0.3029 0.9041
vn 0.3848 0.4147 0.8246
vn -0.2393 0.6538 0.7178
vn -0.3508 0.5585 0.7517
vn -0.5732 -0.5855 -0.5732
vn 0.4157 -0.8089 -0.4157
vn 0.6338 -0.4435 0.6338
vn -0.6984 0.1567 0.6984
vn 0.6984 -0.1567 -0.6984
vn -0.6338 0.4435 -0.6338
vn -0.4157 0.8089 0.4157
vn 0.5732 0.5855 0.5732
vn 0.4879 -0.8725 0.0248
vn 0.4507 -0.6776 0.5811
vn -0.4771 -0.7194 0.5049
vn -0.4441 -0.8872 -0.1251
vn 0.2768 0.7512 -0.5992
vn -0.3469 0.7153 -0.6066
vn -0.4025 0.8812 -0.2480
vn 0.5491 0.7997 -0.2430
vn 0.9187 -0.3728 -0.1306
vn 0.8726 0.3920 -0.2914
vn 0.9428 0.2696 0.1959
vn 0.8459 -0.3523 0.4006
vn 0.4089 -0.5106 0.7564
vn 0.4697 0.1319 0.8729
vn -0.6733 -0.0775 0.7353
vn -0.2926 -0.5523 0.7806
vn -0.9091 -0.3177 0.2696
vn -0.9620 0.2719 -0.0245
vn -0.8213 0.2997 -0.4855
vn -0.8750 -0.3564 -0.3276
vn 0.4904 0.5201 -0.6993
vn 0.5853 -0.4485 -0.6755
vn -0.5670 -0.3541 -0.7437
vn -0.4526 0.4796 -0.7517
vn -0.8483 -0.4814 0.2205
vn -0.8273 0.4125 0.3813
vn -0.9487 0.3162 0.0049
vn -0.9083 -0.3813 -0.1719
vn -0.5570 -0.5569 -0.6161
vn -0.6685 0.6685 -0.3260
vn 0.5614 0.5614 -0.6080
vn 0.4520 -0.4520 -0.7690
vn 0.7570 -0.2523 -0.6027
vn 0.8300 0.3484 -0.4356
vn 0.9461 0.3154 -0.0732
vn 0.8320 -0.4148 -0.3683
vn 0.6989 -0.4221 0.5774
vn 0.3257 0.5393 0.7766
vn -0.4762 0.4762 0.7392
vn -0.3636 -0.6019 0.7110
vn -0.2742 -0.8226 -0.4981
vn 0.3127 -0.7449 -0.5894
vn 0.3048 -0.9144 -0.2664
vn -0.4422 -0.8868 -0.1346
vn 0.3114 0.9343 -0.1733
vn -0.3861 0.9197 0.0709
vn -0.2830 0.8490 0.4462
vn 0.4797 0.8454 0.2351
vn -0.8895 0.1910 0.4151
vn -0.8942 0.3339 0.2981
vn -0.9045 -0.0609 -0.4221
vn -0.9276 -0.2096 -0.3092
vn -0.3766 -0.4548 -0.8070
vn -0.3003 -0.3131 -0.9010
vn 0.3923 -0.3733 -0.8407
vn 0.2680 -0.5308 -0.8040
vn 0.8512 -0.3430 -0.3972
vn 0.9436 -0.1037 -0.3145
vn 0.8828 0.2256 0.4120
vn 0.9481 -0.0355 0.3160
vn 0.4004 0.3220 0.8579
vn 0.2736 0.5015 0.8208
vn -0.3669 0.4972 0.7863
vn -0.2960 0.3522 0.8879
vn -0.5861 -0.5594 -0.5861
vn 0.5578 -0.6146 -0.5578
vn 0.7055 -0.0664 0.7055
vn -0.7066 0.0376 0.7066
vn 0.7066 -0.0376 -0.7066
vn -0.7055 0.0664 -0.7055
vn -0.5578 0.6146 0.5578
vn 0.5861 0.5594 0.5861
vn -0.7786 0.5116 0.3633
vn -0.7545 0.6063 0.2515
vn -0.8808 0.2352 -0.4110
vn -0.9425 0.1136 -0.3142
vn -0.3848 -0.4147 -0.8246
vn -0.3014 -0.3029 -0.9041
vn 0.3508 -0.5585 -0.7517
vn 0.2393 -0.6538 -0.7178
vn 0.7184 -0.6095 -0.3353
vn 0.8457 -0.4531 -0.2819
vn 0.9041 -0.0685 0.4219
vn 0.8902 -0.3457 0.2967
vn 0.4070 0.2718 0.8721
vn 0.2745 0.4964 0.8235
vn -0.3228 0.6461 0.6916
vn -0.2700 0.5208 0.8099
vn -0.6349 -0.4404 -0.6349
vn 0.4654 -0.7529 -0.4654
vn 0.6839 -0.2543 0.6839
vn -0.6587 0.3637 0.6587
vn 0.6587 -0.3637 -0.6587
vn -0.6839 0.2543 -0.6839
vn -0.4654 0.7529 0.4654
vn 0.6349 0.4404 0.6349
usemtl Material
s off
f 1/1/1 73/2/1 25/3/1
f 25/3/2 28/4/2 1/1/2
f 28/4/3 30/5/3 1/1/3
f 1/1/4 76/6/4 26/7/4
f 2/8/5 77/9/5 34/10/5
f 2/8/6 80/11/6 36/12/6
f 2/8/7 79/13/7 35/14/7
f 2/8/8 78/15/8 33/16/8
f 25/17/9 27/18/9 3/19/9
f 3/19/10 77/20/10 33/21/10
f 33/21/11 29/22/11 3/19/11
f 3/19/12 74/23/12 25/17/12
f 28/24/13 29/25/13 4/26/13
f 4/26/14 78/27/14 35/28/14
f 4/26/15 79/29/15 31/30/15
f 4/26/16 75/31/16 28/24/16
f 5/32/17 75/33/17 31/34/17
f 31/34/18 36/35/18 5/32/18
f 5/32/19 80/36/19 32/37/19
f 32/37/20 30/38/20 5/32/20
f 34/39/21 27/40/21 6/41/21
f 6/41/22 73/42/22 26/43/22
f 6/41/23 76/44/23 32/45/23
f 32/45/24 34/39/24 6/41/24
f 37/46/25 38/47/25 7/48/25
f 7/48/26 82/49/26 39/50/26
f 7/48/27 84/51/27 40/52/27
f 7/48/28 83/53/28 37/46/28
f 41/54/29 40/55/29 8/56/29
f 40/55/30 42/57/30 8/56/30
f 42/57/31 43/58/31 8/56/31
f 43/58/32 41/54/32 8/56/32
f 9/59/33 87/60/33 43/61/33
f 9/59/34 88/62/34 45/63/34
f 9/59/35 86/64/35 46/65/35
f 9/59/36 85/66/36 44/67/36
f 10/68/37 85/69/37 46/70/37
f 10/68/38 86/71/38 48/72/38
f 48/72/39 38/73/39 10/68/39
f 10/68/40 81/74/40 47/75/40
f 11/76/41 83/77/41 41/78/41
f 11/76/42 87/79/42 44/80/42
f 11/76/43 85/81/43 47/82/43
f 11/76/44 81/83/44 37/84/44
f 12/85/45 88/86/45 42/87/45
f 12/85/46 84/88/46 39/89/46
f 12/85/47 82/90/47 48/91/47
f 48/91/48 45/92/48 12/85/48
f 13/93/49 89/94/49 50/95/49
f 13/93/50 90/96/50 51/97/50
f 13/93/51 92/98/51 52/99/51
f 13/93/52 91/100/52 49/101/52
f 14/102/53 91/103/53 52/104/53
f 14/102/54 92/105/54 54/106/54
f 14/102/55 96/107/55 55/108/55
f 14/102/56 95/109/56 53/110/56
f 15/111/57 95/112/57 55/113/57
f 15/111/58 96/114/58 57/115/58
f 15/111/59 94/116/59 58/117/59
f 15/111/60 93/118/60 56/119/60
f 16/120/61 93/121/61 58/122/61
f 16/120/62 94/123/62 60/124/62
f 16/120/63 90/125/63 50/126/63
f 16/120/64 89/127/64 59/128/64
f 49/129/65 53/130/65 17/131/65
f 53/130/66 56/132/66 17/131/66
f 56/132/67 59/133/67 17/131/67
f 59/133/68 49/129/68 17/131/68
f 57/134/69 54/135/69 18/136/69
f 54/135/70 51/137/70 18/136/70
f 51/137/71 60/138/71 18/136/71
f 60/138/72 57/134/72 18/136/72
f 19/139/73 97/140/73 62/141/73
f 19/139/74 98/142/74 63/143/74
f 19/139/75 100/144/75 64/145/75
f 19/139/76 99/146/76 61/147/76
f 20/148/77 99/149/77 64/150/77
f 20/148/78 100/151/78 66/152/78
f 20/148/79 104/153/79 67/154/79
f 20/148/80 103/155/80 65/156/80
f 21/157/81 103/158/81 67/159/81
f 21/157/82 104/160/82 69/161/82
f 21/157/83 102/162/83 70/163/83
f 21/157/84 101/164/84 68/165/84
f 22/166/85 101/167/85 70/168/85
f 22/166/86 102/169/86 72/170/86
f 22/166/87 98/171/87 62/172/87
f 22/166/88 97/173/88 71/174/88
f 61/175/89 65/176/89 23/177/89
f 65/176/90 68/178/90 23/177/90
f 68/178/91 71/179/91 23/177/91
f 71/179/92 61/175/92 23/177/92
f 69/180/93 66/181/93 24/182/93
f 66/181/94 63/183/94 24/182/94
f 63/183/95 72/184/95 24/182/95
f 72/184/96 69/180/96 24/182/96
f 1/1/97 26/7/97 73/2/97
f 25/3/98 74/185/98 28/4/98
f 28/4/99 75/186/99 30/5/99
f 1/1/100 30/5/100 76/6/100
f 2/8/101 33/16/101 77/9/101
f 2/8/102 34/10/102 80/11/102
f 2/8/103 36/12/103 79/13/103
f 2/8/104 35/14/104 78/15/104
f 25/17/105 73/187/105 27/18/105
f 3/19/106 27/18/106 77/20/106
f 33/21/107 78/188/107 29/22/107
f 3/19/108 29/22/108 74/23/108
f 28/24/109 74/189/109 29/25/109
f 4/26/110 29/25/110 78/27/110
f 4/26/111 35/28/111 79/29/111
f 4/26/112 31/30/112 75/31/112
f 5/32/113 30/38/113 75/33/113
f 31/34/114 79/190/114 36/35/114
f 5/32/115 36/35/115 80/36/115
f 32/37/116 76/191/116 30/38/116
f 34/39/117 77/192/117 27/40/117
f 6/41/118 27/40/118 73/42/118
f 6/41/119 26/43/119 76/44/119
f 32/45/120 80/193/120 34/39/120
f 37/46/121 81/194/121 38/47/121
f 7/48/122 38/47/122 82/49/122
f 7/48/123 39/50/123 84/51/123
f 7/48/124 40/52/124 83/53/124
f 41/54/125 83/195/125 40/55/125
f 40/55/126 84/196/126 42/57/126
f 42/57/127 88/197/127 43/58/127
f 43/58/128 87/198/128 41/54/128
f 9/59/129 44/67/129 87/60/129
f 9/59/130 43/61/130 88/62/130
f 9/59/131 45/63/131 86/64/131
f 9/59/132 46/65/132 85/66/132
f 10/68/133 47/75/133 85/69/133
f 10/68/134 46/70/134 86/71/134
f 48/72/135 82/199/135 38/73/135
f 10/68/136 38/73/136 81/74/136
f 11/76/137 37/84/137 83/77/137
f 11/76/138 41/78/138 87/79/138
f 11/76/139 44/80/139 85/81/139
f 11/76/140 47/82/140 81/83/140
f 12/85/141 45/92/141 88/86/141
f 12/85/142 42/87/142 84/88/142
f 12/85/143 39/89/143 82/90/143
f 48/91/144 86/200/144 45/92/144
f 13/93/145 49/101/145 89/94/145
f 13/93/146 50/95/146 90/96/146
f 13/93/147 51/97/147 92/98/147
f 13/93/148 52/99/148 91/100/148
f 14/102/149 53/110/149 91/103/149
f 14/102/150 52/104/150 92/105/150
f 14/102/151 54/106/151 96/107/151
f 14/102/152 55/108/152 95/109/152
f 15/111/153 56/119/153 95/112/153
f 15/111/154 55/113/154 96/114/154
f 15/111/155 57/115/155 94/116/155
f 15/111/156 58/117/156 93/118/156
f 16/120/157 59/128/157 93/121/157
f 16/120/158 58/122/158 94/123/158
f 16/120/159 60/124/159 90/125/159
f 16/120/160 50/126/160 89/127/160
f 49/129/161 91/201/161 53/130/161
f 53/130/162 95/202/162 56/132/162
f 56/132/163 93/203/163 59/133/163
f 59/133/164 89/204/164 49/129/164
f 57/134/165 96/205/165 54/135/165
f 54/135/166 92/206/166 51/137/166
f 51/137/167 90/207/167 60/138/167
f 60/138/168 94/208/168 57/134/168
f 19/139/169 61/147/169 97/140/169
f 19/139/170 62/141/170 98/142/170
f 19/139/171 63/143/171 100/144/171
f 19/139/172 64/145/172 99/146/172
f 20/148/173 65/156/173 99/149/173
f 20/148/174 64/150/174 100/151/174
f 20/148/175 66/152/175 104/153/175
f 20/148/176 67/154/176 103/155/176
f 21/157/177 68/165/177 103/158/177
f 21/157/178 67/159/178 104/160/178
f 21/157/179 69/161/179 102/162/179
f 21/157/180 70/163/180 101/164/180
f 22/166/181 71/174/181 101/167/181
f 22/166/182 70/168/182 102/169/182
f 22/166/183 72/170/183 98/171/183
f 22/166/184 62/172/184 97/173/184
f 61/175/185 99/209/185 65/176/185
f 65/176/186 103/210/186 68/178/186
f 68/178/187 101/211/187 71/179/187
f 71/179/188 97/212/188 61/175/188
f 69/180/189 104/213/189 66/181/189
f 66/181/190 100/214/190 63/183/190
f 63/183/191 98/215/191 72/184/191
f 72/184/192 102/216/192 69/180/192
