# Blender v2.79 (sub 0) OBJ File: 'untitled.blend'
# www.blender.org
mtllib insect.mtl
o Cube
v 0.134266 -1.230197 -0.159686
v 0.039836 1.435718 0.621078
v 0.995491 0.102760 0.230696
v -0.094430 0.849035 1.780763
v -0.821389 0.102760 0.230696
v 0.268532 -0.643515 -1.319371
v 0.255351 2.192897 2.354485
v 0.119098 2.025450 2.895950
v -0.339475 2.192897 2.354485
v -0.203222 2.360344 1.813020
v -0.042062 2.490310 2.354485
v -0.042062 1.895484 2.354485
v 1.199037 0.209365 1.303191
v 0.957485 0.209365 1.544743
v 0.715932 0.209365 1.303191
v 0.957485 0.209365 1.061639
v 1.020526 1.065006 0.872097
v 0.894443 -0.646276 1.734285
v -1.134333 0.354272 1.601358
v -0.985212 0.354272 1.452237
v -0.836091 0.354272 1.601358
v -0.985212 0.354272 1.750479
v -1.225387 -0.165517 1.925144
v -0.745038 0.874061 1.277572
v 0.803792 -0.896958 -0.062090
v 0.234965 -1.198625 -1.029450
v 0.858712 -0.456946 -0.931854
v 0.009959 -0.595291 0.905269
v 0.678050 0.662466 1.393247
v -0.558868 -0.896958 -0.062090
v -0.776170 0.662466 1.393246
v -0.412389 -0.456946 -0.931855
v 0.732970 1.102478 0.523483
v 0.211358 0.284734 -0.834259
v -0.108078 1.920223 1.881224
v -0.629690 1.102478 0.523482
v 0.180998 2.415957 2.354485
v 0.130780 2.318482 1.948387
v 0.180998 1.969837 2.354485
v 0.231216 2.067312 2.760584
v 0.078808 2.219720 2.760584
v 0.078808 1.914904 2.760584
v -0.073600 2.067312 2.760584
v -0.265121 2.415957 2.354485
v -0.265121 1.969837 2.354485
v -0.456643 2.318482 1.948386
v -0.162932 2.612194 1.948386
v -0.162932 2.024770 1.948386
v 1.185930 0.851095 0.979870
v 1.138649 0.209365 1.122027
v 1.091367 -0.432366 1.626512
v 1.138649 0.209365 1.484355
v 1.004766 0.851095 1.161034
v 0.910203 -0.432366 1.807675
v 0.776320 0.209365 1.484355
v 0.823602 0.851095 0.979870
v 0.729039 -0.432366 1.626512
v 0.776321 0.209365 1.122027
v 1.004766 0.851095 0.798706
v 0.910203 -0.432366 1.445348
v -1.277184 -0.035569 1.844198
v -1.097053 0.354272 1.713199
v -0.916922 0.744114 1.358519
v -1.097053 0.354272 1.489517
v -1.165343 -0.035569 1.732357
v -0.805081 0.744114 1.246678
v -0.873372 0.354272 1.489517
v -1.053502 -0.035569 1.844198
v -0.693241 0.744114 1.358519
v -0.873372 0.354272 1.713199
v -1.165343 -0.035569 1.956038
v -0.805081 0.744114 1.470360
v 0.687954 -0.937685 -0.760580
v 0.547987 -0.337859 0.788214
v -0.502085 -0.337859 0.788214
v -0.280730 -0.937685 -0.760580
v 0.656478 0.314011 -0.500325
v 0.474541 1.372573 1.395475
v -0.575530 1.372573 1.395475
v -0.312207 0.314011 -0.500325
v 0.065035 2.482553 2.053671
v 0.065035 2.089293 2.053671
v 0.181300 2.233700 2.655299
v 0.181300 1.966043 2.655299
v -0.328225 2.482553 2.053671
v -0.328225 2.089293 2.053671
v -0.086357 2.233700 2.655299
v -0.086357 1.966043 2.655299
v 1.126703 0.684721 0.929499
v 1.056657 -0.265991 1.408492
v 1.126703 0.684721 1.197890
v 1.056657 -0.265991 1.676883
v 0.858312 0.684721 0.929499
v 0.788266 -0.265991 1.408492
v 0.858312 0.684721 1.197890
v 0.788266 -0.265991 1.676883
v -1.201488 0.065501 1.864084
v -0.934627 0.643044 1.504322
v -1.201488 0.065501 1.698395
v -0.934627 0.643044 1.338632
v -1.035798 0.065501 1.864084
v -0.768937 0.643044 1.504322
v -1.035798 0.065501 1.698395
v -0.768937 0.643044 1.338632
vt 0.491778 0.217810
vt 0.415219 0.139601
vt 0.497611 0.149031
vt 0.580431 0.235567
vt 0.492786 0.295242
vt 0.381164 0.276056
vt 0.409826 0.203181
vt 0.820465 0.731730
vt 0.957783 0.867358
vt 0.899854 0.889650
vt 0.841926 0.911942
vt 0.756043 0.756520
vt 0.656342 0.613021
vt 0.748904 0.577062
vt 0.818195 0.550398
vt 0.884886 0.706939
vt 0.156206 0.587024
vt 0.254788 0.593654
vt 0.168318 0.691936
vt 0.279012 0.650802
vt 0.180430 0.796848
vt 0.081848 0.790218
vt 0.081848 0.637542
vt 0.644924 0.283990
vt 0.763914 0.401611
vt 0.693000 0.428900
vt 0.611161 0.432814
vt 0.593344 0.285529
vt 0.507475 0.389978
vt 0.529004 0.493366
vt 0.387847 0.385633
vt 0.392864 0.323767
vt 0.279430 0.189563
vt 0.346523 0.132961
vt 0.341278 0.194808
vt 0.336033 0.256655
vt 0.000000 0.500000
vt 0.500000 0.000000
vt 0.500000 0.500000
vt 1.000000 0.000000
vt 1.000000 0.500000
vt 1.000000 1.000000
vt 0.500000 1.000000
vt 0.000000 1.000000
vt 0.000000 0.500000
vt 0.500000 0.000000
vt 0.500000 0.500000
vt 1.000000 0.500000
vt 0.500000 1.000000
vt 0.500000 0.500000
vt 0.000000 0.000000
vt 0.500000 0.000000
vt 1.000000 0.000000
vt 1.000000 0.500000
vt 1.000000 1.000000
vt 0.500000 1.000000
vt 0.000000 1.000000
vt 0.000000 0.500000
vt 0.500000 0.500000
vt 0.000000 0.000000
vt 0.500000 0.000000
vt 1.000000 0.000000
vt 1.000000 0.500000
vt 0.500000 1.000000
vt 0.000000 1.000000
vt 0.000000 0.500000
vt 0.500000 0.500000
vt 0.000000 0.000000
vt 0.500000 0.000000
vt 1.000000 0.000000
vt 1.000000 0.500000
vt 1.000000 1.000000
vt 0.500000 1.000000
vt 0.500000 0.500000
vt 0.000000 0.000000
vt 0.500000 0.000000
vt 1.000000 0.000000
vt 1.000000 1.000000
vt 0.500000 1.000000
vt 0.000000 0.500000
vt 0.472060 0.891479
vt 0.416690 0.931747
vt 0.459357 0.884268
vt 0.480690 0.831014
vt 0.506162 0.856943
vt 0.507683 0.871616
vt 0.485652 0.898358
vt 0.448149 0.942030
vt 0.432182 0.935975
vt 0.501022 0.904573
vt 0.525921 0.865430
vt 0.558177 0.856062
vt 0.517280 0.910457
vt 0.482460 0.963270
vt 0.465067 0.951737
vt 0.604613 0.778531
vt 0.670358 0.739362
vt 0.611228 0.798503
vt 0.556073 0.824051
vt 0.542984 0.785270
vt 0.597997 0.758560
vt 0.657126 0.699419
vt 0.663742 0.719390
vt 0.477779 0.756665
vt 0.453535 0.676539
vt 0.496202 0.747120
vt 0.511845 0.813371
vt 0.459357 0.766209
vt 0.416690 0.695629
vt 0.435113 0.686084
vt 0.923923 0.116500
vt 0.942277 0.134854
vt 0.923923 0.134854
vt 0.923923 0.153208
vt 0.905569 0.134854
vt 0.528711 0.842327
vt 0.299772 0.800143
vt 0.258357 0.837336
vt 0.288442 0.800143
vt 0.313044 0.756635
vt 0.324375 0.756635
vt 0.335705 0.756635
vt 0.311103 0.800143
vt 0.304284 0.837336
vt 0.281320 0.835606
vt 0.333032 0.873230
vt 0.333032 0.861900
vt 0.379563 0.880149
vt 0.379563 0.891480
vt 0.379563 0.902810
vt 0.333032 0.884561
vt 0.304284 0.881751
vt 0.295301 0.859543
vt 0.299772 0.909819
vt 0.311103 0.909819
vt 0.335705 0.953327
vt 0.324375 0.953327
vt 0.313044 0.953327
vt 0.288441 0.909819
vt 0.258357 0.881751
vt 0.281320 0.874356
vt 0.217308 0.873230
vt 0.217308 0.884561
vt 0.170776 0.902810
vt 0.170776 0.891480
vt 0.170776 0.880149
vt 0.217308 0.861900
vt 0.255039 0.859543
vt 0.275170 0.854981
vt 0.748408 0.121411
vt 0.737077 0.132742
vt 0.737077 0.121411
vt 0.725747 0.121411
vt 0.737077 0.110080
vt 0.586852 0.159856
vt 0.230564 0.536507
vt 0.081848 0.942895
vt 0.715838 0.256701
vt 0.284675 0.127715
vt 0.274185 0.251410
vt 0.000000 0.000000
vt 1.000000 1.000000
vt 0.000000 1.000000
vt 0.000000 1.000000
vt 0.942277 0.116500
vt 0.942277 0.153207
vt 0.905569 0.153208
vt 0.905569 0.116500
vt 0.748408 0.132742
vt 0.725747 0.132742
vt 0.725747 0.110080
vt 0.748408 0.110080
vn 0.4481 -0.8937 -0.0222
vn 0.3217 -0.7963 0.5123
vn -0.3334 -0.8264 0.4538
vn -0.4858 -0.8696 -0.0878
vn 0.3640 0.7509 -0.5510
vn -0.2663 0.7220 -0.6386
vn -0.5293 0.7692 -0.3579
vn 0.4099 0.8985 -0.1568
vn 0.9832 -0.1800 -0.0290
vn 0.8899 0.3269 -0.3182
vn 0.9648 0.2051 0.1647
vn 0.8452 -0.2930 0.4469
vn 0.2985 -0.4789 0.8256
vn 0.6010 -0.0670 0.7964
vn -0.5185 0.1439 0.8429
vn -0.4215 -0.4921 0.7616
vn -0.9001 -0.3778 0.2169
vn -0.9769 0.2051 -0.0608
vn -0.8106 0.3627 -0.4598
vn -0.9520 -0.1768 -0.2498
vn 0.3887 0.4454 -0.8065
vn 0.6257 -0.3905 -0.6752
vn -0.5334 -0.4097 -0.7400
vn -0.3618 0.4142 -0.8352
vn -0.9315 -0.3105 0.1897
vn -0.8515 0.2838 0.4409
vn -0.9201 0.3862 0.0648
vn -0.9319 -0.3106 -0.1873
vn -0.5510 -0.5510 -0.6268
vn -0.6638 0.6638 -0.3445
vn 0.5554 0.5554 -0.6189
vn 0.4471 -0.4471 -0.7747
vn 0.7471 -0.3136 -0.5861
vn 0.8278 0.2759 -0.4885
vn 0.8885 0.4430 -0.1194
vn 0.9161 -0.3054 -0.2598
vn 0.4229 -0.7002 0.5752
vn 0.5972 0.3607 0.7165
vn -0.3209 0.3209 0.8911
vn -0.5435 -0.3283 0.7726
vn -0.3463 -0.8250 -0.4466
vn 0.2514 -0.7543 -0.6064
vn 0.4141 -0.8305 -0.3725
vn -0.3150 -0.9450 -0.0878
vn 0.3822 0.9106 -0.1573
vn -0.3162 0.9486 0.0123
vn -0.4117 0.8258 0.3854
vn 0.3096 0.9288 0.2036
vn -0.9436 0.1037 0.3145
vn -0.8512 0.3430 0.3972
vn -0.9481 0.0355 -0.3160
vn -0.8828 -0.2256 -0.4120
vn -0.2736 -0.5015 -0.8208
vn -0.4004 -0.3220 -0.8579
vn 0.2960 -0.3522 -0.8879
vn 0.3669 -0.4972 -0.7863
vn 0.8942 -0.3339 -0.2981
vn 0.8895 -0.1910 -0.4151
vn 0.9276 0.2096 0.3092
vn 0.9045 0.0609 0.4221
vn 0.3003 0.3131 0.9010
vn 0.3766 0.4548 0.8070
vn -0.2680 0.5308 0.8040
vn -0.3923 0.3733 0.8407
vn -0.5248 -0.6702 -0.5248
vn 0.4982 -0.7096 -0.4982
vn 0.6783 -0.2827 0.6783
vn -0.6946 -0.1871 0.6946
vn 0.6946 0.1871 -0.6946
vn -0.6783 0.2827 -0.6783
vn -0.4982 0.7096 0.4982
vn 0.5248 0.6702 0.5248
vn -0.8457 0.4531 0.2819
vn -0.7184 0.6095 0.3353
vn -0.8902 0.3457 -0.2967
vn -0.9041 0.0685 -0.4219
vn -0.2745 -0.4964 -0.8235
vn -0.4070 -0.2718 -0.8721
vn 0.2700 -0.5208 -0.8099
vn 0.3228 -0.6461 -0.6916
vn 0.7545 -0.6063 -0.2515
vn 0.7786 -0.5116 -0.3633
vn 0.9425 -0.1136 0.3142
vn 0.8808 -0.2352 0.4110
vn 0.3014 0.3029 0.9041
vn 0.3848 0.4147 0.8246
vn -0.2393 0.6538 0.7178
vn -0.3508 0.5585 0.7517
vn -0.5732 -0.5855 -0.5732
vn 0.4157 -0.8089 -0.4157
vn 0.6338 -0.4435 0.6338
vn -0.6984 0.1567 0.6984
vn 0.6984 -0.1567 -0.6984
vn -0.6338 0.4435 -0.6338
vn -0.4157 0.8089 0.4157
vn 0.5732 0.5855 0.5732
vn 0.4879 -0.8725 0.0248
vn 0.4507 -0.6776 0.5811
vn -0.4771 -0.7194 0.5049
vn -0.4441 -0.8872 -0.1251
vn 0.2768 0.7512 -0.5992
vn -0.3469 0.7153 -0.6066
vn -0.4025 0.8812 -0.2480
vn 0.5491 0.7997 -0.2430
vn 0.9187 -0.3728 -0.1306
vn 0.8726 0.3920 -0.2914
vn 0.9428 0.2696 0.1959
vn 0.8459 -0.3523 0.4006
vn 0.4089 -0.5106 0.7564
vn 0.4697 0.1319 0.8729
vn -0.6733 -0.0775 0.7353
vn -0.2926 -0.5523 0.7806
vn -0.9091 -0.3177 0.2696
vn -0.9620 0.2719 -0.0245
vn -0.8213 0.2997 -0.4855
vn -0.8750 -0.3564 -0.3276
vn 0.4904 0.5201 -0.6993
vn 0.5853 -0.4485 -0.6755
vn -0.5670 -0.3541 -0.7437
vn -0.4526 0.4796 -0.7517
vn -0.8483 -0.4814 0.2205
vn -0.8273 0.4125 0.3813
vn -0.9487 0.3162 0.0049
vn -0.9083 -0.3813 -0.1719
vn -0.5570 -0.5569 -0.6161
vn -0.6685 0.6685 -0.3260
vn 0.5614 0.5614 -0.6080
vn 0.4520 -0.4520 -0.7690
vn 0.7570 -0.2523 -0.6027
vn 0.8300 0.3484 -0.4356
vn 0.9461 0.3154 -0.0732
vn 0.8320 -0.4148 -0.3683
vn 0.6989 -0.4221 0.5774
vn 0.3257 0.5393 0.7766
vn -0.4762 0.4762 0.7392
vn -0.3636 -0.6019 0.7110
vn -0.2742 -0.8226 -0.4981
vn 0.3127 -0.7449 -0.5894
vn 0.3048 -0.9144 -0.2664
vn -0.4422 -0.8868 -0.1346
vn 0.3114 0.9343 -0.1733
vn -0.3861 0.9197 0.0709
vn -0.2830 0.8490 0.4462
vn 0.4797 0.8454 0.2351
vn -0.8895 0.1910 0.4151
vn -0.8942 0.3339 0.2981
vn -0.9045 -0.0609 -0.4221
vn -0.9276 -0.2096 -0.3092
vn -0.3766 -0.4548 -0.8070
vn -0.3003 -0.3131 -0.9010
vn 0.3923 -0.3733 -0.8407
vn 0.2680 -0.5308 -0.8040
vn 0.8512 -0.3430 -0.3972
vn 0.9436 -0.1037 -0.3145
vn 0.8828 0.2256 0.4120
vn 0.9481 -0.0355 0.3160
vn 0.4004 0.3220 0.8579
vn 0.2736 0.5015 0.8208
vn -0.3669 0.4972 0.7863
vn -0.2960 0.3522 0.8879
vn -0.5861 -0.5594 -0.5861
vn 0.5578 -0.6146 -0.5578
vn 0.7055 -0.0664 0.7055
vn -0.7066 0.0376 0.7066
vn 0.7066 -0.0376 -0.7066
vn -0.7055 0.0664 -0.7055
vn -0.5578 0.6146 0.5578
vn 0.5861 0.5594 0.5861
vn -0.7786 0.5116 0.3633
vn -0.7545 0.6063 0.2515
vn -0.8808 0.2352 -0.4110
vn -0.9425 0.1136 -0.3142
vn -0.3848 -0.4147 -0.8246
vn -0.3014 -0.3029 -0.9041
vn 0.3508 -0.5585 -0.7517
vn 0.2393 -0.6538 -0.7178
vn 0.7184 -0.6095 -0.3353
vn 0.8457 -0.4531 -0.2819
vn 0.9041 -0.0685 0.4219
vn 0.8902 -0.3457 0.2967
vn 0.4070 0.2718 0.8721
vn 0.2745 0.4964 0.8235
vn -0.3228 0.6461 0.6916
vn -0.2700 0.5208 0.8099
vn -0.6349 -0.4404 -0.6349
vn 0.4654 -0.7529 -0.4654
vn 0.6839 -0.2543 0.6839
vn -0.6587 0.3637 0.6587
vn 0.6587 -0.3637 -0.6587
vn -0.6839 0.2543 -0.6839
vn -0.4654 0.7529 0.4654
vn 0.6349 0.4404 0.6349
usemtl Material
s off
f 1/1/1 73/2/1 25/3/1
f 25/3/2 28/4/2 1/1/2
f 28/4/3 30/5/3 1/1/3
f 1/1/4 76/6/4 26/7/4
f 2/8/5 77/9/5 34/10/5
f 2/8/6 80/11/6 36/12/6
f 2/8/7 79/13/7 35/14/7
f 2/8/8 78/15/8 33/16/8
f 25/17/9 27/18/9 3/19/9
f 3/19/10 77/20/10 33/21/10
f 33/21/11 29/22/11 3/19/11
f 3/19/12 74/23/12 25/17/12
f 28/24/13 29/25/13 4/26/13
f 4/26/14 78/15/14 35/14/14
f 4/26/15 79/13/15 31/27/15
f 4/26/16 75/28/16 28/24/16
f 5/29/17 75/28/17 31/27/17
f 31/27/18 36/30/18 5/29/18
f 5/29/19 80/31/19 32/32/19
f 32/32/20 30/5/20 5/29/20
f 34/33/21 27/34/21 6/35/21
f 6/35/22 73/2/22 26/7/22
f 6/35/23 76/6/23 32/36/23
f 32/36/24 34/33/24 6/35/24
f 37/37/25 38/38/25 7/39/25
f 7/39/26 82/40/26 39/41/26
f 7/39/27 84/42/27 40/43/27
f 7/39/28 83/44/28 37/37/28
f 41/45/29 40/46/29 8/47/29
f 40/46/30 42/48/30 8/47/30
f 42/48/31 43/49/31 8/47/31
f 43/49/32 41/45/32 8/47/32
f 9/50/33 87/51/33 43/52/33
f 9/50/34 88/53/34 45/54/34
f 9/50/35 86/55/35 46/56/35
f 9/50/36 85/57/36 44/58/36
f 10/59/37 85/60/37 46/61/37
f 10/59/38 86/62/38 48/63/38
f 48/63/39 38/64/39 10/59/39
f 10/59/40 81/65/40 47/66/40
f 11/67/41 83/68/41 41/69/41
f 11/67/42 87/70/42 44/71/42
f 11/67/43 85/72/43 47/73/43
f 11/67/44 81/65/44 37/37/44
f 12/74/45 88/75/45 42/76/45
f 12/74/46 84/77/46 39/41/46
f 12/74/47 82/78/47 48/79/47
f 48/79/48 45/80/48 12/74/48
f 13/81/49 89/82/49 50/83/49
f 13/81/50 90/84/50 51/85/50
f 13/81/51 92/86/51 52/87/51
f 13/81/52 91/88/52 49/89/52
f 14/90/53 91/88/53 52/87/53
f 14/90/54 92/86/54 54/91/54
f 14/90/55 96/92/55 55/93/55
f 14/90/56 95/94/56 53/95/56
f 15/96/57 95/97/57 55/98/57
f 15/96/58 96/92/58 57/99/58
f 15/96/59 94/100/59 58/101/59
f 15/96/60 93/102/60 56/103/60
f 16/104/61 93/105/61 58/106/61
f 16/104/62 94/100/62 60/107/62
f 16/104/63 90/84/63 50/108/63
f 16/104/64 89/109/64 59/110/64
f 49/111/65 53/112/65 17/113/65
f 53/112/66 56/114/66 17/113/66
f 56/114/67 59/115/67 17/113/67
f 59/115/68 49/111/68 17/113/68
f 57/99/69 54/91/69 18/116/69
f 54/91/70 51/85/70 18/116/70
f 51/85/71 60/107/71 18/116/71
f 60/107/72 57/99/72 18/116/72
f 19/117/73 97/118/73 62/119/73
f 19/117/74 98/120/74 63/121/74
f 19/117/75 100/122/75 64/123/75
f 19/117/76 99/124/76 61/125/76
f 20/126/77 99/124/77 64/127/77
f 20/126/78 100/128/78 66/129/78
f 20/126/79 104/130/79 67/131/79
f 20/126/80 103/132/80 65/133/80
f 21/134/81 103/132/81 67/135/81
f 21/134/82 104/136/82 69/137/82
f 21/134/83 102/138/83 70/139/83
f 21/134/84 101/140/84 68/141/84
f 22/142/85 101/140/85 70/143/85
f 22/142/86 102/144/86 72/145/86
f 22/142/87 98/146/87 62/147/87
f 22/142/88 97/118/88 71/148/88
f 61/125/89 65/133/89 23/149/89
f 65/133/90 68/141/90 23/149/90
f 68/141/91 71/148/91 23/149/91
f 71/148/92 61/125/92 23/149/92
f 69/150/93 66/151/93 24/152/93
f 66/151/94 63/153/94 24/152/94
f 63/153/95 72/154/95 24/152/95
f 72/154/96 69/150/96 24/152/96
f 1/1/97 26/7/97 73/2/97
f 25/3/98 74/155/98 28/4/98
f 28/4/99 75/28/99 30/5/99
f 1/1/100 30/5/100 76/6/100
f 2/8/101 33/16/101 77/9/101
f 2/8/102 34/10/102 80/11/102
f 2/8/103 36/12/103 79/13/103
f 2/8/104 35/14/104 78/15/104
f 25/17/105 73/156/105 27/18/105
f 3/19/106 27/18/106 77/20/106
f 33/21/107 78/157/107 29/22/107
f 3/19/108 29/22/108 74/23/108
f 28/24/109 74/158/109 29/25/109
f 4/26/110 29/25/110 78/15/110
f 4/26/111 35/14/111 79/13/111
f 4/26/112 31/27/112 75/28/112
f 5/29/113 30/5/113 75/28/113
f 31/27/114 79/13/114 36/30/114
f 5/29/115 36/30/115 80/31/115
f 32/32/116 76/6/116 30/5/116
f 34/33/117 77/159/117 27/34/117
f 6/35/118 27/34/118 73/2/118
f 6/35/119 26/7/119 76/6/119
f 32/36/120 80/160/120 34/33/120
f 37/37/121 81/161/121 38/38/121
f 7/39/122 38/38/122 82/40/122
f 7/39/123 39/41/123 84/42/123
f 7/39/124 40/43/124 83/44/124
f 41/45/125 83/68/125 40/46/125
f 40/46/126 84/77/126 42/48/126
f 42/48/127 88/162/127 43/49/127
f 43/49/128 87/163/128 41/45/128
f 9/50/129 44/58/129 87/51/129
f 9/50/130 43/52/130 88/53/130
f 9/50/131 45/54/131 86/55/131
f 9/50/132 46/56/132 85/57/132
f 10/59/133 47/66/133 85/60/133
f 10/59/134 46/61/134 86/62/134
f 48/63/135 82/78/135 38/64/135
f 10/59/136 38/64/136 81/65/136
f 11/67/137 37/37/137 83/68/137
f 11/67/138 41/69/138 87/70/138
f 11/67/139 44/71/139 85/72/139
f 11/67/140 47/73/140 81/65/140
f 12/74/141 45/80/141 88/75/141
f 12/74/142 42/76/142 84/77/142
f 12/74/143 39/41/143 82/78/143
f 48/79/144 86/164/144 45/80/144
f 13/81/145 49/89/145 89/82/145
f 13/81/146 50/83/146 90/84/146
f 13/81/147 51/85/147 92/86/147
f 13/81/148 52/87/148 91/88/148
f 14/90/149 53/95/149 91/88/149
f 14/90/150 52/87/150 92/86/150
f 14/90/151 54/91/151 96/92/151
f 14/90/152 55/93/152 95/94/152
f 15/96/153 56/103/153 95/97/153
f 15/96/154 55/98/154 96/92/154
f 15/96/155 57/99/155 94/100/155
f 15/96/156 58/101/156 93/102/156
f 16/104/157 59/110/157 93/105/157
f 16/104/158 58/106/158 94/100/158
f 16/104/159 60/107/159 90/84/159
f 16/104/160 50/108/160 89/109/160
f 49/111/161 91/165/161 53/112/161
f 53/112/162 95/166/162 56/114/162
f 56/114/163 93/167/163 59/115/163
f 59/115/164 89/168/164 49/111/164
f 57/99/165 96/92/165 54/91/165
f 54/91/166 92/86/166 51/85/166
f 51/85/167 90/84/167 60/107/167
f 60/107/168 94/100/168 57/99/168
f 19/117/169 61/125/169 97/118/169
f 19/117/170 62/119/170 98/120/170
f 19/117/171 63/121/171 100/122/171
f 19/117/172 64/123/172 99/124/172
f 20/126/173 65/133/173 99/124/173
f 20/126/174 64/127/174 100/128/174
f 20/126/175 66/129/175 104/130/175
f 20/126/176 67/131/176 103/132/176
f 21/134/177 68/141/177 103/132/177
f 21/134/178 67/135/178 104/136/178
f 21/134/179 69/137/179 102/138/179
f 21/134/180 70/139/180 101/140/180
f 22/142/181 71/148/181 101/140/181
f 22/142/182 70/143/182 102/144/182
f 22/142/183 72/145/183 98/146/183
f 22/142/184 62/147/184 97/118/184
f 61/125/185 99/124/185 65/133/185
f 65/133/186 103/132/186 68/141/186
f 68/141/187 101/140/187 71/148/187
f 71/148/188 97/118/188 61/125/188
f 69/150/189 104/169/189 66/151/189
f 66/151/190 100/170/190 63/153/190
f 63/153/191 98/171/191 72/154/191
f 72/154/192 102/172/192 69/150/192
