# Blender v2.79 (sub 0) OBJ File: ''
# www.blender.org
mtllib Tr.mtl
o Cube
v 1.000000 -1.000000 -1.000000
v 1.000000 -1.000000 1.000000
v -1.000000 -1.000000 1.000000
v -1.000000 -1.000000 -1.000000
v 1.000000 4.922294 -0.999999
v 0.999999 4.922294 1.000001
v -1.000000 4.922294 1.000000
v -1.000000 4.922294 -1.000000
vt 0.987426 0.987471
vt 0.743971 0.006373
vt 0.993627 0.006373
vt 0.237427 0.987471
vt -0.006029 0.006373
vt 0.243627 0.006373
vt 0.487426 0.987472
vt 0.243971 0.006373
vt 0.493627 0.006373
vt 0.493971 0.006373
vt 0.737427 0.987472
vt 0.487770 0.987471
vt 0.737770 0.987471
vt -0.012229 0.987472
vt 0.237770 0.987472
vt 0.743627 0.006373
vt 0.000000 0.000000
vt 0.000000 0.000000
vt 0.000000 0.000000
vt 0.000000 0.000000
vt 0.000000 0.000000
vt 0.000000 0.000000
vt 0.000000 0.000000
vt 0.000000 0.000000
vn 1.0000 -0.0000 0.0000
vn 0.0000 -0.0000 1.0000
vn -1.0000 -0.0000 -0.0000
vn 0.0000 0.0000 -1.0000
vn 0.0000 -1.0000 0.0000
vn 0.0000 1.0000 0.0000
usemtl Material
s off
f 5/1/1 2/2/1 1/3/1
f 6/4/2 3/5/2 2/6/2
f 7/7/3 4/8/3 3/9/3
f 1/10/4 8/11/4 5/12/4
f 5/1/1 6/13/1 2/2/1
f 6/4/2 7/14/2 3/5/2
f 7/7/3 8/15/3 4/8/3
f 1/10/4 4/16/4 8/11/4
usemtl Material_NONE
f 2/17/5 4/18/5 1/19/5
f 8/20/6 6/21/6 5/22/6
f 2/17/5 3/23/5 4/18/5
f 8/20/6 7/24/6 6/21/6
